<?xml version="1.0" encoding="utf-8"?>
<svg xmlns:xlink="http://www.w3.org/1999/xlink" xmlns="http://www.w3.org/2000/svg" id="svg" viewBox="0, 0, 100, 100" preserveAspectRatio="none"> 
<!-- grid.svg -->
<!-- viewBox creates a new coordinate system for the (visible) viewport
     of children of svg.
     NOTE: coordinates of elements range from 0 to 100 in x and y.
     The viewBox defines a cell in an infinite coordinate space.
     Since the viewport is anchored at (0,0) and is 100x100
     units exactly match the viewport units 100vw x 100vh.
     NOTE: children will scale as the window-viewport is re-sized.
     aspect ratio clipping and justification are specified in 
     preserveAspectRatio. The default preserveAspectRatio is 
     mid-x mid-y and scales in this manner but does not crop
     In order to keep a .stage 100x100 in vector space coordinates
     for all viewport dimensions preserveAspectRatio = 'none'. -->
<!-- elements in defs are prototypes able to re-used
     their values are added to the values of the 'used' elements
     thus it is easiest if their values are set to zero
     they are not themselves displayed -->

<defs>
  <!-- lines -->
  <line id="h" x1="-200" y1="0" x2="300" y2="0"/>
  <line id="v" x1="0" y1="-200" x2="0" y2="300"/>

  <!-- universal animateMotion cloned for path cinematography and object animation -->
  <animateMotion id="am" /> 
</defs>



<!-- origin marker -->
<circle id="cr" cx="50" cy="50" r="2" style="fill:red" />
<!-- test -->
<rect id="rg" x="50" y="50" width="2.0" height="2.0" style="fill:green" />


<!-- ******************* channels group *************** -->
<g id="channels" style="display: block" >
<!-- m marker -->
<circle id="cw" cx="50" cy="50" r="0.75" style="fill:white" />
<!-- grid -->
<!-- horizontal -->
<g id="lines" stroke-width="0.05" stroke="black">
<use xlink:href="#h" y="-150"/>
<use xlink:href="#h" y="-100"/>
<use xlink:href="#h" y="-50"/>
<use xlink:href="#h" y="0"/>
<use xlink:href="#h" y="50"/>
<use xlink:href="#h" y="100"/>
<use xlink:href="#h" y="150"/>
<use xlink:href="#h" y="200"/>
<use xlink:href="#h" y="250"/>
<!-- vertical -->
<use xlink:href="#v" x="-150"/>
<use xlink:href="#v" x="-100"/>
<use xlink:href="#v" x="-50"/>
<use xlink:href="#v" x="0"/>
<use xlink:href="#v" x="50"/>
<use xlink:href="#v" x="100"/>
<use xlink:href="#v" x="150"/>
<use xlink:href="#v" x="200"/>
<use xlink:href="#v" x="250"/>
</g>

<!-- vertical text: fits vertically if y=1 && font-size is 2.65 -->
<g id="vtext" font-family="neuropol" font-size="12pt" stroke="white"
stroke-width="0.15">
<text x="40" y="7" style="writing-mode: tb; glyph-orientation-vertical: 0;">
Prism 
</text>
</g>

<!-- letters marking gridpoints -->
<g id="letters" font-family="neuropol" font-size="1.25pt"> 
<!-- row1 -->
<text x="-150" y="-150">a</text>
<text x="-50" y="-150">b</text>
<text x="50" y="-150">c</text>
<text x="150" y="-150">d</text>
<text x="250" y="-150">e</text>
<!-- row2 -->
<text x="-150" y="-50">f</text>
<text x="-50" y="-50">g</text>
<text x="50" y="-50">h</text>
<text x="150" y="-50">i</text>
<text x="250" y="-50">j</text>
<!-- row3 -->
<text x="-150" y="50">k</text>
<text x="-50" y="50">l</text>
<text x="50" y="50">m</text>
<text x="50" y="30">30</text>
<text x="50" y="35">35</text>
<text x="50" y="40">40</text>
<text x="50" y="45">45</text>
<text x="50" y="55">55</text>
<text x="50" y="60">60</text>
<text x="50" y="65">65</text>
<text x="50" y="70">70</text>
<text x="50" y="75">75</text>
<text x="50" y="80">80</text>
<text x="50" y="85">85</text>
<text x="50" y="90">90</text>
<text x="50" y="95">95</text>
<text x="30" y="50">30</text>
<text x="35" y="50">35</text>
<text x="40" y="50">40</text>
<text x="45" y="50">45</text>
<text x="55" y="50">55</text>
<text x="55" y="50">55</text>
<text x="60" y="50">60</text>
<text x="65" y="50">65</text>
<text x="70" y="50">70</text>
<text x="75" y="50">75</text>
<text x="80" y="50">80</text>
<text x="85" y="50">85</text>
<text x="90" y="50">90</text>
<text x="95" y="50">95</text>
<text x="150" y="50">n</text>
<text x="250" y="50">o</text>
<!-- row4 -->
<text x="-150" y="150">p</text>
<text x="-50" y="150">q</text>
<text x="50" y="150">r</text>
<text x="150" y="150">s</text>
<text x="250" y="150">t</text>
<!-- row5 -->
<text x="-150" y="250">u</text>
<text x="-50" y="250">v</text>
<text x="50" y="250">w</text>
<text x="150" y="250">x</text>
<text x="250" y="250">y</text>
</g>
</g> <!-- ******************* channels group *************** -->


<!-- ******************* ch1-sc1 group *************** -->
<g id="ch1-sc1" style="display: none">
  <circle id="cb" cx="60" cy="60" r="1" style="fill:black" />
  <rect id="rr" x="20" y="20" width="40" height="40" rx="20" ry="20" style="stroke:green; strokeWidth:20; fill:red; opacity:0.3" />
</g> <!-- ******************* ch1-sc1 group *************** -->
</svg>

