<svg xmlns:xlink="http://www.w3.org/1999/xlink" xmlns="http://www.w3.org/2000/svg" width="100%" height="100%"> 

<defs>
  <!-- lines -->
  <line id="h" x1="-50" y1="0" x2="1100" y2="0"/>
  <line id="v" x1="0" y1="-50" x2="0" y2="1100"/>
</defs>


<!-- ******************* grid group *************** -->
<g id="grid" style="display: block" >
<!-- origin marker -->
<circle id="cr" cx="50" cy="50" r="2" style="fill:#ff1000" />
<circle id="cw" cx="50" cy="50" r="0.8" style="fill:white" />
<rect id="rg" x="50" y="50" width="2.0" height="2.0" style="fill:#9999ff" />

<!-- horizontal -->
<g id="lines" stroke="black" stroke-width="0.1" > <!-- stroke-width="0.05" >
-->
<use xlink:href="#h" y="-50"/>
<use xlink:href="#h" y="0"/>
<use xlink:href="#h" y="50"/>
<use xlink:href="#h" y="100"/>
<use xlink:href="#h" y="150"/>
<use xlink:href="#h" y="200"/>
<use xlink:href="#h" y="250"/>
<use xlink:href="#h" y="300"/>
<use xlink:href="#h" y="350"/>
<use xlink:href="#h" y="400"/>
<use xlink:href="#h" y="450"/>
<use xlink:href="#h" y="500"/>
<use xlink:href="#h" y="550"/>
<use xlink:href="#h" y="600"/>
<use xlink:href="#h" y="650"/>
<use xlink:href="#h" y="700"/>
<use xlink:href="#h" y="750"/>
<use xlink:href="#h" y="800"/>
<use xlink:href="#h" y="850"/>
<use xlink:href="#h" y="900"/>
<use xlink:href="#h" y="950"/>
<use xlink:href="#h" y="1000"/>
<use xlink:href="#h" y="1050"/>
<use xlink:href="#h" y="1100"/>

<!-- vertical -->
<use xlink:href="#v" x="-50"/>
<use xlink:href="#v" x="0"/>
<use xlink:href="#v" x="50"/>
<use xlink:href="#v" x="100"/>
<use xlink:href="#v" x="150"/>
<use xlink:href="#v" x="200"/>
<use xlink:href="#v" x="250"/>
<use xlink:href="#v" x="300"/>
<use xlink:href="#v" x="350"/>
<use xlink:href="#v" x="400"/>
<use xlink:href="#v" x="450"/>
<use xlink:href="#v" x="500"/>
<use xlink:href="#v" x="550"/>
<use xlink:href="#v" x="600"/>
<use xlink:href="#v" x="650"/>
<use xlink:href="#v" x="700"/>
<use xlink:href="#v" x="750"/>
<use xlink:href="#v" x="800"/>
<use xlink:href="#v" x="850"/>
<use xlink:href="#v" x="900"/>
<use xlink:href="#v" x="950"/>
<use xlink:href="#v" x="1000"/>
<use xlink:href="#v" x="1050"/>
<use xlink:href="#v" x="1100"/>
</g>

<!-- letters marking gridpoints -->
<g id="axes" font-family="neuropol" font-size="1.5pt" style="display:block"> 

<!-- y-axis coordinates -->
<text x="50" y="0">-50</text>
<text x="50" y="5">-45</text>
<text x="50" y="10">-40</text>
<text x="50" y="15">-35</text>
<text x="50" y="20">-30</text>
<text x="50" y="25">-25</text>
<text x="50" y="30">-20</text>
<text x="50" y="35">-15</text>
<text x="50" y="40">-10</text>
<text x="50" y="45">-5</text>
<text x="50" y="50">0</text>
<text x="50" y="55">5</text>
<text x="50" y="60">10</text>
<text x="50" y="65">15</text>
<text x="50" y="70">20</text>
<text x="50" y="75">25</text>
<text x="50" y="80">30</text>
<text x="50" y="85">35</text>
<text x="50" y="90">40</text>
<text x="50" y="95">45</text>
<text x="50" y="100">50</text>

<!-- x-axis coordinates -->
<text x="0" y="50">-50</text>
<text x="5" y="50">-45</text>
<text x="10" y="50">-40</text>
<text x="15" y="50">-35</text>
<text x="20" y="50">-30</text>
<text x="25" y="50">-25</text>
<text x="30" y="50">-20</text>
<text x="35" y="50">-15</text>
<text x="40" y="50">-10</text>
<text x="45" y="50">-5</text>
<text x="50" y="50">0</text>
<text x="55" y="50">5</text>
<text x="60" y="50">10</text>
<text x="65" y="50">15</text>
<text x="70" y="50">20</text>
<text x="75" y="50">25</text>
<text x="80" y="50">30</text>
<text x="85" y="50">35</text>
<text x="90" y="50">40</text>
<text x="95" y="50">45</text>
<text x="100" y="50">50</text>


<!-- row0 -->
<text x="51" y="49">0,0</text>
<text x="150" y="50">1,0</text>
<text x="250" y="50">2,0</text>
<text x="350" y="50">3,0</text>
<text x="450" y="50">4,0</text>
<text x="550" y="50">5,0</text>
<text x="650" y="50">6,0</text>
<text x="750" y="50">7,0</text>
<text x="850" y="50">8,0</text>
<text x="950" y="50">9,0</text>
<!-- row1 -->
<text x="50" y="150">0,1</text>
<text x="150" y="150">1,1</text>
<text x="250" y="150">2,1</text>
<text x="350" y="150">3,1</text>
<text x="450" y="150">4,1</text>
<text x="550" y="150">5,1</text>
<text x="650" y="150">6,1</text>
<text x="750" y="150">7,1</text>
<text x="850" y="150">8,1</text>
<text x="950" y="150">9,1</text>
<!-- row2 -->
<text x="50" y="250">0,2</text>
<text x="150" y="250">1,2</text>
<text x="250" y="250">2,2</text>
<text x="350" y="250">3,2</text>
<text x="450" y="250">4,2</text>
<text x="550" y="250">5,2</text>
<text x="650" y="250">6,2</text>
<text x="750" y="250">7,2</text>
<text x="850" y="250">8,2</text>
<text x="950" y="350">9,2</text>
<!-- row3 -->
<text x="50" y="350">0,3</text>
<text x="150" y="350">1,3</text>
<text x="250" y="350">2,3</text>
<text x="350" y="350">3,3</text>
<text x="450" y="350">4,3</text>
<text x="550" y="350">5,3</text>
<text x="650" y="350">6,3</text>
<text x="750" y="350">7,3</text>
<text x="850" y="350">8,3</text>
<text x="950" y="350">9,3</text>
<!-- row4 -->
<text x="50" y="450">0,4</text>
<text x="150" y="450">1,4</text>
<text x="250" y="450">2,4</text>
<text x="350" y="450">3,4</text>
<text x="450" y="450">4,4</text>
<text x="550" y="450">5,4</text>
<text x="650" y="450">6,4</text>
<text x="750" y="450">7,4</text>
<text x="850" y="450">8,4</text>
<text x="950" y="450">9,4</text>
<!-- row5 -->
<text x="50" y="550">0,5</text>
<text x="150" y="550">1,5</text>
<text x="250" y="550">2,5</text>
<text x="350" y="550">3,5</text>
<text x="450" y="550">4,5</text>
<text x="550" y="550">5,5</text>
<text x="650" y="550">6,5</text>
<text x="750" y="550">7,5</text>
<text x="850" y="550">8,5</text>
<text x="950" y="550">9,5</text>
<!-- row6 -->
<text x="50" y="650">0,6</text>
<text x="150" y="650">1,6</text>
<text x="250" y="650">2,6</text>
<text x="350" y="650">3,6</text>
<text x="450" y="650">4,6</text>
<text x="550" y="650">5,6</text>
<text x="650" y="650">6,6</text>
<text x="750" y="650">7,6</text>
<text x="850" y="650">8,6</text>
<text x="950" y="650">9,6</text>
<!-- row7 -->
<text x="50" y="750">0,7</text>
<text x="150" y="750">1,7</text>
<text x="250" y="750">2,7</text>
<text x="350" y="750">3,7</text>
<text x="450" y="750">4,7</text>
<text x="550" y="750">5,7</text>
<text x="650" y="750">6,7</text>
<text x="750" y="750">7,7</text>
<text x="850" y="750">8,7</text>
<text x="950" y="750">9,7</text>
<!-- row8 -->
<text x="50" y="850">0,8</text>
<text x="150" y="850">1,8</text>
<text x="250" y="850">2,8</text>
<text x="350" y="850">3,8</text>
<text x="450" y="850">4,8</text>
<text x="550" y="850">5,8</text>
<text x="650" y="850">6,8</text>
<text x="750" y="850">7,8</text>
<text x="850" y="850">8,8</text>
<text x="950" y="850">9,8</text>
<!-- row9 -->
<text x="50" y="950">0,9</text>
<text x="150" y="950">1,9</text>
<text x="250" y="950">2,9</text>
<text x="350" y="950">3,9</text>
<text x="450" y="950">4,9</text>
<text x="550" y="950">5,9</text>
<text x="650" y="950">6,9</text>
<text x="750" y="950">7,9</text>
<text x="850" y="950">8,9</text>
<text x="950" y="950">9,9</text>
</g> <!-- axes -->
</g> <!-- ******************* grid group *************** -->
</svg>

